<?xml version="1.0" encoding="iso-8859-1"?>
<!-- Generator: Adobe Illustrator 19.0.0, SVG Export Plug-In . SVG Version: 6.00 Build 0)  -->
<svg version="1.1" id="Layer_1" xmlns="http://www.w3.org/2000/svg" xmlns:xlink="http://www.w3.org/1999/xlink" x="0px" y="0px"
	 viewBox="0 0 511.997 511.997" style="enable-background:new 0 0 511.997 511.997;" xml:space="preserve">
<g>
	<g>
		<g>
			<path d="M184.189,136.446l-71.996,127.992l71.996,128.008h143.616l71.987-127.983l-72.798-128.017H184.189z M255.997,332.713
				c-42.342,0-76.8-34.449-76.8-76.8c0-42.351,34.458-76.8,76.8-76.8s76.8,34.449,76.8,76.8
				C332.797,298.264,298.339,332.713,255.997,332.713z"/>
			<path d="M487.753,147.326L418.446,267.8c-0.555,0.947-1.399,1.664-2.261,2.338l-68.796,122.308h124.996
				c25.045-39.552,39.612-86.357,39.612-136.533C511.997,217.112,503.276,180.316,487.753,147.326z"/>
			<path d="M94.959,260.263l69.649-123.819H29.679C10.761,172.14,0,212.784,0,255.911c0,44.621,11.494,86.596,31.65,123.162
				l62.362-114.389C93.969,263.182,94.165,261.671,94.959,260.263z"/>
			<path d="M255.997,196.18c-32.939,0-59.733,26.803-59.733,59.733c0,32.93,26.795,59.733,59.733,59.733
				s59.733-26.803,59.733-59.733C315.73,222.983,288.935,196.18,255.997,196.18z"/>
			<path d="M195.009,409.513l58.53,102.34c0.828,0.009,1.638,0.06,2.458,0.06c83.576,0,157.909-40.26,204.664-102.4H332.797H195.009
				z"/>
			<path d="M171.757,405.164L103.26,283.367L41.871,395.982c41.865,63.778,111.411,107.802,191.437,114.867L174.471,407.98
				C173.396,407.263,172.44,406.367,171.757,405.164z"/>
			<path d="M317.292,119.38L249.452,0.084C161.191,2.311,83.922,49.389,39.608,119.38h139.588H317.292z"/>
			<path d="M340.204,125.156l69.897,122.914l68.292-118.699C436.324,55.72,358.79,4.819,269.181,0.253l69.589,122.377
				C339.385,123.389,339.88,124.217,340.204,125.156z"/>
		</g>
	</g>
</g>
<g>
</g>
<g>
</g>
<g>
</g>
<g>
</g>
<g>
</g>
<g>
</g>
<g>
</g>
<g>
</g>
<g>
</g>
<g>
</g>
<g>
</g>
<g>
</g>
<g>
</g>
<g>
</g>
<g>
</g>
</svg>
