<?xml version="1.0" encoding="iso-8859-1"?>
<!-- Generator: Adobe Illustrator 19.0.0, SVG Export Plug-In . SVG Version: 6.00 Build 0)  -->
<svg version="1.1" id="Layer_1" xmlns="http://www.w3.org/2000/svg" xmlns:xlink="http://www.w3.org/1999/xlink" x="0px" y="0px"
	 viewBox="0 0 512.003 512.003" style="enable-background:new 0 0 512.003 512.003;" xml:space="preserve">
<g>
	<g>
		<g>
			<path d="M256.002,238.934c-9.412,0-17.067,7.654-17.067,17.067c0,9.412,7.654,17.067,17.067,17.067
				c9.412,0,17.067-7.654,17.067-17.067C273.068,246.589,265.414,238.934,256.002,238.934z"/>
			<path d="M209.819,187.734l-38.042,68.471l38.298,76.595h91.853l38.298-76.595l-38.042-68.471H209.819z M256.002,290.134
				c-18.825,0-34.133-15.309-34.133-34.133c0-18.825,15.309-34.133,34.133-34.133c18.825,0,34.133,15.309,34.133,34.133
				C290.135,274.825,274.826,290.134,256.002,290.134z"/>
			<path d="M446.713,85.454l-89.207,174.353v0.009l-36.497,72.986h179.209c7.646-24.26,11.784-50.048,11.784-76.8
				C512.002,190.542,487.272,130.766,446.713,85.454z"/>
			<path d="M154.728,251.766l35.576-64.034H9.32c-6.033,21.751-9.318,44.629-9.318,68.267c0,62.191,22.315,119.262,59.324,163.669
				l95.386-167.885C154.72,251.774,154.728,251.774,154.728,251.766z"/>
			<path d="M314.664,175.061l34.893,62.805l84.634-165.419C388.068,27.657,325.22,0,256.006,0c-12.297,0-24.363,0.922-36.198,2.611
				l94.848,172.442C314.656,175.053,314.656,175.053,314.664,175.061z"/>
			<path d="M218.609,349.868l79.326,158.643c89.6-14.831,163.601-76.339,196.164-158.643H307.202H218.609z"/>
			<path d="M161.653,274.12L71.362,433.044c46.618,48.606,112.128,78.959,184.644,78.959c8.098,0,16.094-0.427,24.004-1.161
				l-82.842-165.692L161.653,274.12z"/>
			<path d="M202.076,5.769C114.865,24.543,44.047,87.869,14.684,170.668h278.084L202.076,5.769z"/>
		</g>
	</g>
</g>
<g>
</g>
<g>
</g>
<g>
</g>
<g>
</g>
<g>
</g>
<g>
</g>
<g>
</g>
<g>
</g>
<g>
</g>
<g>
</g>
<g>
</g>
<g>
</g>
<g>
</g>
<g>
</g>
<g>
</g>
</svg>
